<svg id="Layer_1" data-name="Layer 1" xmlns="http://www.w3.org/2000/svg" viewBox="0 0 1024 1024"><defs><style>.cls-1{fill:#fff;}.cls-2{fill:#f0ca11;}.cls-3{fill:#287281;}.cls-4{fill:#38828f;}.cls-5{fill:#317c89;}.cls-6{fill:#24606f;}.cls-7{fill:#458c96;}.cls-8{fill:#55a2a7;}.cls-10,.cls-14,.cls-27,.cls-9{fill:none;}.cls-9{stroke:#eaeaea;}.cls-10,.cls-14,.cls-9{stroke-miterlimit:10;stroke-width:0.74px;}.cls-10{stroke:#e9e8e9;}.cls-11{fill:#d36d71;}.cls-12{fill:#d96b4a;}.cls-13{fill:#c7c4c4;}.cls-14{stroke:#d5d6d6;}.cls-15{fill:#d5d6d6;}.cls-16{fill:#e9e8e9;}.cls-17{fill:#ed7e5a;}.cls-18{fill:#323b3f;}.cls-19{fill:#afafaf;}.cls-20{fill:#8ad2e8;}.cls-21{fill:#c4c4c3;}.cls-22{fill:#eaeaea;}.cls-23{fill:#d7d7d7;}.cls-24{fill:#1e2223;}.cls-25{fill:#76c4e3;}.cls-26{fill:#3b515e;}</style></defs><path class="cls-1" d="M1017.8,637.17,893.35,696.31l-49,23.3h0l-14.7,7h0L790,745.42h0q-50.06,23.8-100.1,47.6l-25.12-52.85-9.39-19.76-1.13-2.36h0l-9.36-19.69-7.12-15-9-19L567.85,536.25,564,528.1l-2.49-5.24-.21-.44-3.89-8.19c-.12-.25-.23-.5-.36-.74l-3.37-7.1-2.94-6.19-.25-.55-9.24-19.43-1-2.19-19-40-24.35-51.21L824.73,231l183.56,386.19Z"/><rect class="cls-2" x="576.23" y="310.39" width="324.94" height="324.94" transform="translate(-131.46 362.9) rotate(-25.42)"/><g id="Layer_3" data-name="Layer 3"><path class="cls-3" d="M745.31,523.59l-9.18,90.14L705,602l-17.22-6.52-18.69-7.08,9.18-90.12h0Z"/><path class="cls-4" d="M678.32,498.24l70.44-7.77,67.3,21.79-70.75,11.33Z"/><polygon class="cls-5" points="745.31 523.59 736.13 613.74 806.89 602.39 816.06 512.26 816.03 512.25 745.31 523.59"/><path class="cls-3" d="M785.23,502.27l-67.66,10.85-14.21-5.38,66.06-10.59Z"/><path class="cls-6" d="M699.47,546h0s.51-5.51,1-10.85c.34-3.53,1.37-13.66,2.85-27.41l14.21,5.38-3.81,37.77L699.47,546Z"/><path class="cls-6" d="M694.19,597.86h0c.28-3.08.58-6.17.88-9.27q1.21-12.44,2.57-24.66l14.24,5-3.46,34.33Z"/><g id="W_Mark" data-name="W Mark"><path class="cls-7" d="M708.4,535.43a5.16,5.16,0,0,1,1.88.77,5.11,5.11,0,0,1,1.4,1.38,5.36,5.36,0,0,1,.78,1.81,5.17,5.17,0,0,1-.75,3.92,5.11,5.11,0,0,1-1.38,1.4,5.24,5.24,0,0,1-.87.47,4.5,4.5,0,0,1-.94.31,5.12,5.12,0,0,1-3.92-.75,5.25,5.25,0,0,1-1.4-1.38,4.87,4.87,0,0,1-.47-.87,4.5,4.5,0,0,1-.31-.94,5.15,5.15,0,0,1,.75-3.93,4.54,4.54,0,0,1,.63-.76,4.48,4.48,0,0,1,.75-.63,4.92,4.92,0,0,1,.87-.48,5.09,5.09,0,0,1,3-.32Zm.06-.31a5.46,5.46,0,1,0,4.34,6.38h0a5.44,5.44,0,0,0-4.32-6.39h0Z"/><path class="cls-8" d="M703,539.62a4.54,4.54,0,0,0,1.76,4.5l-1-6.24A4.55,4.55,0,0,0,703,539.62Zm7.53,1.2a2.45,2.45,0,0,0-.14-1.31,2.18,2.18,0,0,1-.24-1.13.79.79,0,0,1,.9-.65l.06,0a4.54,4.54,0,0,0-6.36-.93,4.28,4.28,0,0,0-.55.49l.29.06c.46.08,1.2.16,1.2.16a.2.2,0,0,1,.17.21.19.19,0,0,1-.21.17h0l-.52-.06.72,5.15,1.53-2.74-.33-2c-.24-.06-.46-.14-.46-.14a.19.19,0,0,1,.1-.36h0s.72.2,1.16.28,1.21.17,1.21.17a.19.19,0,0,1,0,.37s-.24,0-.52,0l.72,5.11.74-1.38A5.38,5.38,0,0,0,710.5,540.82Zm-3.06,0-2.08,3.64a4.58,4.58,0,0,0,2.77.46s0-.05,0-.07Zm4.33-1.8a3.62,3.62,0,0,1-.06.46,4.34,4.34,0,0,1-.64,1.54l-2.12,3.7a4.55,4.55,0,0,0,2.82-5.68Z"/></g><path class="cls-9" d="M695.64,385.33,744.85,504"/><path class="cls-9" d="M734.1,388.72,744.85,504"/><path class="cls-9" d="M786.6,391.35,744.85,504"/><path class="cls-10" d="M819.34,395.93,744.85,504"/><path class="cls-11" d="M679.62,378.25A18.61,18.61,0,0,0,690,385.16a16.83,16.83,0,0,0,5.57.36q2-11.59,3.94-23.18c-1.47,0-9.55.22-15.31,6.65A19.87,19.87,0,0,0,679.62,378.25Z"/><path class="cls-12" d="M834.41,394.18c-.81,2.67-5.65,3.41-8.06,3.46a14.38,14.38,0,0,1-7-1.72c-.39-10.17,1.25-17.9,4.23-18.5,3.26-.66,7.19,7.38,10.37,13.91A3.93,3.93,0,0,1,834.41,394.18Z"/><path class="cls-13" d="M786.6,391.35a59.36,59.36,0,0,0,32.74,4.58l4.23-18.5c-5.47-16.17-18-25.45-28.48-23.8-1.92.3-6.78,1.44-11.68,7.23Z"/><path class="cls-12" d="M734.18,389a85.56,85.56,0,0,0,52.42,2.31q1.5-14.64,3-29.26l-57.1-9.64Z"/><path class="cls-13" d="M695.56,385.52A58.77,58.77,0,0,0,734.18,389l3.42-29.18-20.83-5.54-17.26,8Q697.53,373.94,695.56,385.52Z"/><path class="cls-14" d="M785,367.62q-20,68.19-40.1,136.38"/><path class="cls-14" d="M693.51,369.94Q719.18,437,744.85,504"/><path class="cls-14" d="M734.08,362.22,744.85,504"/><path class="cls-9" d="M819.91,382.83,744.85,504"/><path class="cls-15" d="M694.22,371.49a37.44,37.44,0,0,1,16.42-10.06,37.84,37.84,0,0,1,23.44.8c.17-1,.41-2.34.74-4,3.14-15.86,6.13-31,16.9-40.24a34.67,34.67,0,0,1,13.33-7c-4.72-.42-26.85-1.81-46.65,14.11C696.7,342.5,694.51,367.34,694.22,371.49Z"/><path class="cls-16" d="M784.92,368.16a30.61,30.61,0,0,1,17.41.18,31.51,31.51,0,0,1,17.79,14.86,68.36,68.36,0,0,0-10.68-42.76c-14.67-22.44-37.74-28-42.53-29a77.46,77.46,0,0,1,18,56.73Z"/><path class="cls-17" d="M734.08,362.22a46.68,46.68,0,0,1,50.84,5.94c.5-3.25,6.21-43.39-13.64-54.84a22,22,0,0,0-6.23-2.39,21.54,21.54,0,0,0-6.81,1C736.65,318.93,734.21,359.49,734.08,362.22Z"/><path class="cls-12" d="M765.05,310.93a66.79,66.79,0,0,0-34,7c-30.09,15.42-36.16,49.18-36.87,53.55a12.66,12.66,0,0,0-9.83,1.23,12.11,12.11,0,0,0-4.77,5.53,66.7,66.7,0,0,1,6.51-26.05c13.76-28.33,43.83-36.69,49.93-38.38a86.19,86.19,0,0,1,29-2.89Z"/><path class="cls-17" d="M820.12,383.2c.42-4.95,1.81-27.57-14.37-47.88a68.24,68.24,0,0,0-38.84-23.89c5.38.67,31.61,4.55,50.67,28.29,18.63,23.18,17.26,48.89,16.83,54.47a13.15,13.15,0,0,0-5.22-8.73A13,13,0,0,0,820.12,383.2Z"/><circle class="cls-15" cx="757.58" cy="353.11" r="0.76"/><circle class="cls-15" cx="755.88" cy="347.02" r="0.58"/><circle class="cls-15" cx="766.03" cy="353" r="0.58"/><circle class="cls-15" cx="760.06" cy="342.33" r="0.39"/><circle class="cls-15" cx="765.78" cy="346.76" r="0.39"/><circle class="cls-15" cx="766.46" cy="342.6" r="0.94"/><path class="cls-15" d="M758.71,344.5a4,4,0,0,1,1.18-.82,4.23,4.23,0,0,1,1.85-.37,5.4,5.4,0,0,1,3.11,1,2.91,2.91,0,0,1,.33.26,1,1,0,0,1,.13,1.38,1,1,0,0,1-1.37.19,3.82,3.82,0,0,0-1.83-.71,2.14,2.14,0,0,0-2.07.83,2.43,2.43,0,0,0-.39.81,2.73,2.73,0,0,0,.13,2.08,2.15,2.15,0,0,0,1.48,1.07,3.69,3.69,0,0,0,2.13-.15,1,1,0,0,1,1.27.57.84.84,0,0,1,.05.17,1,1,0,0,1-.56,1.13,5.63,5.63,0,0,1-2.14.46,4.9,4.9,0,0,1-2.87-.84,4.2,4.2,0,0,1-1.22-1.33,4.26,4.26,0,0,1-.54-1.88A5.11,5.11,0,0,1,758.71,344.5Z"/></g><rect class="cls-18" x="84.25" y="422.81" width="87.67" height="24.49" rx="6.94"/><rect class="cls-19" x="109.35" y="429.19" width="37.49" height="24.49" rx="12.24"/><rect class="cls-18" x="453.51" y="424.04" width="58.9" height="24.49" rx="5.54"/><path class="cls-20" d="M829.6,726.62,790,745.42h0c-23.66-.5-53.47-1.54-91.34-3.43v0q-16-.79-33.88-1.8c-24-1.35-50.8-3-80.65-5q-22.41-1.53-43.85-3.08-47.91-3.48-91-7.21c-3-.28-6.07-.54-9.07-.8-80-7-147.43-14.78-203-23.24q-26.49-4-49.39-8.29h0c-3.08-.58-6.13-1.15-9.11-1.73q-28.14-5.46-50.69-11.31c-53.52-13.85-82.5-29.19-98.85-44.36a69.06,69.06,0,0,1-19.7-30.65c-.05-.12-.09-.24-.13-.37a65.83,65.83,0,0,1-3-19.31l19.18-.23c0,.15,0,.3,0,.44v.08a46.57,46.57,0,0,0,2.15,13.19,42.17,42.17,0,0,0,1.53,4.11c13.28,31.26,59.61,47.13,103.67,58.53q16.68,4.3,36.46,8.42c2.71.56,5.46,1.13,8.26,1.68q43.69,8.68,102,16.45h0q33.74,4.5,72.47,8.69,21.87,2.39,45.37,4.66,27.8,2.7,57.87,5.29l8.25.69q37.13,3.13,77.77,6.11,21.6,1.56,44.2,3.09c25.52,1.72,48.77,3.2,70,4.42q17.91,1.05,33.91,1.87C758,725.88,801.29,726.74,829.6,726.62Z"/><path class="cls-21" d="M541.22,451.81V727a13.75,13.75,0,0,1-13.77,13.78H42.89A13.78,13.78,0,0,1,29.12,727V451.81A13.78,13.78,0,0,1,42.89,438H527.45A13.76,13.76,0,0,1,541.22,451.81Z"/><rect class="cls-18" x="29.12" y="478.03" width="512.1" height="222.78"/><path class="cls-21" d="M412.32,464.46H239.39a16.49,16.49,0,0,1-16-20.6l10.92-42.34a16.48,16.48,0,0,1,16-12.37H401.41a16.49,16.49,0,0,1,16,12.37q5.46,21.17,10.91,42.34A16.48,16.48,0,0,1,412.32,464.46Z"/><circle class="cls-22" cx="139.78" cy="515.7" r="16.67"/><rect class="cls-18" x="265.62" y="401.96" width="120.46" height="20.49" rx="2.16"/><path class="cls-23" d="M56.36,500.34A15.37,15.37,0,0,0,41,515.7a14.27,14.27,0,0,0,.07,1.46,15.36,15.36,0,0,0,13.39,13.77,13.14,13.14,0,0,0,1.89.13,15.36,15.36,0,1,0,0-30.72Zm2.75,25.85A10.85,10.85,0,1,1,67.2,515.7,10.85,10.85,0,0,1,59.11,526.19Z"/><circle class="cls-22" cx="325.85" cy="613.51" r="166.22"/><circle class="cls-24" cx="325.85" cy="613.51" r="159.05"/><circle class="cls-25" cx="325.85" cy="607.22" r="92.67"/><path class="cls-20" d="M385.75,536.52a92.66,92.66,0,0,1,10.82,130.59L255.14,547.32A92.66,92.66,0,0,1,385.75,536.52Z"/><circle class="cls-26" cx="325.85" cy="607.22" r="45.22"/><path class="cls-27" d="M63.94,521.55q-2.52,2.36-4.83,4.64A10.86,10.86,0,0,1,46.17,512c1.51-1.48,3.06-3,4.67-4.47Z"/><path class="cls-20" d="M54.47,530.93c-30,31.53-30.67,53-28.08,63.47a30.49,30.49,0,0,0,1.06,3.49l-18,6.58A54.58,54.58,0,0,1,7.75,599c-4.31-17.49-1.55-45.39,33.33-81.85,1.62-1.69,3.32-3.42,5.09-5.16a10.85,10.85,0,0,0,12.94,14.19Q56.66,528.59,54.47,530.93Z"/><path class="cls-23" d="M528.31,505.81A15.34,15.34,0,0,0,498.92,512q0,.74.06,1.47a15.39,15.39,0,0,0,13.39,13.77,13.2,13.2,0,0,0,1.9.11A15.38,15.38,0,0,0,529.62,512,15.43,15.43,0,0,0,528.31,505.81Zm-3.57,9a10.89,10.89,0,0,1-7.73,7.68l-.34.08a11.1,11.1,0,0,1-2.4.28,10.85,10.85,0,1,1,10.47-8Z"/><path class="cls-27" d="M525.11,512a10.84,10.84,0,0,1-8.1,10.49,10.72,10.72,0,0,1-2.74.36A10.85,10.85,0,1,1,525.11,512Z"/><polygon class="cls-20" points="567.85 536.25 541.22 529.13 541.22 509.98 557.38 514.23 561.27 522.41 561.48 522.86 563.97 528.1 567.85 536.25"/><path class="cls-20" d="M557.38,514.23,541.22,510v19.15l-17.86-4.77-6.7-1.78.14,0a.72.72,0,0,1,.21,0,10.84,10.84,0,0,0,8.1-10.49c0-.37,0-.74-.06-1.11,0-.18,0-.36-.07-.54a9.92,9.92,0,0,0-.28-1.29c0-.14-.09-.3-.14-.45a6.25,6.25,0,0,0-.41-1l-.14-.33,0,0,0,0c-.1-.2-.21-.4-.32-.58l-.11-.2,0-.06-.14-.21a1.63,1.63,0,0,0-.11-.17,8.25,8.25,0,0,0-.62-.84h0l-.08-.09-.18-.21a.45.45,0,0,1-.09-.1l-.18-.18-.11-.11a1,1,0,0,0-.18-.18l-.17-.17h0s0,0,0,0l6.72,1.8,12.9,3.45,15.8,4.23Z"/><path class="cls-20" d="M340.45,620.19c-2.21.35-5.72,2.51-7.72,3.46-1.76.85-4.27,2-6.86,1.23-1.13-.35-3-1.38-3.1-2.78s1.58-2.72,5-5.47c.73-.6,1-.76,1.37-1.08,1.79-1.43,6.32-5.06,6.27-9.76a8,8,0,0,0-4.06-7,7.76,7.76,0,0,0-5.28-.41,11.45,11.45,0,0,0-4.46,2.46,22.94,22.94,0,0,0-6.36,7.49,17.91,17.91,0,0,0-2.42,8,16.26,16.26,0,0,0,1.4,7.25,13.16,13.16,0,0,0,9.52,7.77,17.84,17.84,0,0,0,6.61.28,19.78,19.78,0,0,0,10.24-5.06c2.82-2.36,2.89-3.5,2.81-4a3,3,0,0,0-2-2.35A2.06,2.06,0,0,0,340.45,620.19Zm-20.83-4.08c-1.11-.79.38-5.79,3.57-8.56,1-.86,3-2.33,3.85-1.73s-.07,3.56-.15,3.78a9.44,9.44,0,0,1-2.22,3.31C323.7,613.9,320.6,616.8,319.62,616.11Z"/><rect class="cls-20" x="315.19" y="582.48" width="4.65" height="13.53" rx="2.29" transform="translate(-213.53 181.79) rotate(-24.18)"/><rect class="cls-20" x="325.61" y="580.24" width="4.65" height="13.53" rx="2.29" transform="translate(61.18 -30.21) rotate(5.82)"/><rect class="cls-20" x="307.11" y="588.56" width="4.65" height="13.53" rx="2.29" transform="translate(973.25 692.78) rotate(125.82)"/><rect class="cls-20" x="303.4" y="597.85" width="4.65" height="13.53" rx="2.29" transform="translate(946.49 384.5) rotate(97.87)"/><rect class="cls-20" x="335.02" y="583.65" width="4.65" height="13.53" rx="2.29" transform="translate(385.07 -87.9) rotate(33.77)"/></svg>